# xmcd
#
# Track frame offsets: 
#        150
#        14432
#        29029
#        42496
#        55393
#        69490
#        82839
#        97190
#        111144
#        124885
#        138445
#        153029
#        167043
#        181592
#        195808
#        210226
#        223596
#        238398
#
# Disc length: 3385 seconds
#
# Revision: 1
# Processed by: cddbd v1.5.2PL0 Copyright (c) Steve Scherf et al.
# Submitted via: ExactAudioCopy v0.95b2
#
DISCID=f60d3712
DTITLE=Barbecue Bob and The Spareribs - The Essential Barbecue Bob Disc 
DTITLE=2
DYEAR=2001
DGENRE=Blues
TTITLE0=Twistin' That Stuff
TTITLE1=Motherless Chile Blues
TTITLE2=Ease It To Me Blues
TTITLE3=Crooked Woman Blues
TTITLE4=It Just Won't Hay
TTITLE5=Jacksonville Blues
TTITLE6=Good Time Rounder
TTITLE7=Atlanta Moan
TTITLE8=She's Coming Back Some Cold Rainy Day
TTITLE9=She Looks So Good
TTITLE10=Tellin' It To You
TTITLE11='Fo Day Creep
TTITLE12=It's Just Too Bad
TTITLE13=Waycross Georgia Blues
TTITLE14=She Shook Her Gin
TTITLE15=Midnight Weepin' Blues
TTITLE16=Jambooger Blues
TTITLE17=We Sure Got Hard Times
EXTD=YEAR: 2001 ID3G: 0
EXTT0=
EXTT1=
EXTT2=
EXTT3=
EXTT4=
EXTT5=
EXTT6=
EXTT7=
EXTT8=
EXTT9=
EXTT10=
EXTT11=
EXTT12=
EXTT13=
EXTT14=
EXTT15=
EXTT16=
EXTT17=
PLAYORDER=
